<?xml version="1.0" encoding="UTF-8"?>
<!DOCTYPE svg PUBLIC "-//W3C//DTD SVG 1.1//EN" "http://www.w3.org/Graphics/SVG/1.1/DTD/svg11.dtd">
<svg version="1.1" xmlns="http://www.w3.org/2000/svg" xmlns:xlink="http://www.w3.org/1999/xlink" x="0" y="0" width="296" height="287" viewBox="0, 0, 296, 287">
  <defs>
    <linearGradient id="Gradient_1" gradientUnits="userSpaceOnUse" x1="203.89" y1="48.298" x2="204.29" y2="48.298">
      <stop offset="0" stop-color="#50341D"/>
      <stop offset="1" stop-color="#2D2118"/>
    </linearGradient>
  </defs>
  <g id="Layer_1">
    <path d="M203.676,170.526 C203.676,170.526 202.876,171.594 202.61,172.926 C202.343,174.259 201.543,179.859 202.876,180.926 C204.209,181.992 205.543,181.727 205.543,181.727 C206.343,182.793 205.543,182.793 207.143,183.326 C208.744,183.859 210.61,183.326 210.61,183.326 C210.61,183.326 212.21,184.126 213.276,183.593 C214.343,183.059 216.744,176.125 217.01,175.059 C217.276,173.992 213.01,171.059 213.01,171.059 L205.01,170.256 L203.676,170.526" fill="#F4BB9D"/>
    <path d="M203.676,170.526 C203.676,170.526 202.876,171.594 202.61,172.926 C202.343,174.259 201.543,179.859 202.876,180.926 C204.209,181.992 205.543,181.727 205.543,181.727 C206.343,182.793 205.543,182.793 207.143,183.326 C208.744,183.859 210.61,183.326 210.61,183.326 C210.61,183.326 212.21,184.126 213.276,183.593 C214.343,183.059 216.744,176.125 217.01,175.059 C217.276,173.992 213.01,171.059 213.01,171.059 L205.01,170.256 L203.676,170.526 z" fill-opacity="0" stroke="#1A1919" stroke-width="1.2" stroke-linecap="round" stroke-linejoin="round"/>
    <path d="M204.744,174.793 L205.543,181.727 C205.543,181.727 205.278,183.456 206.611,183.188 C207.944,182.923 208.476,183.325 208.476,181.459 C208.476,179.593 208.476,179.593 208.476,179.593 L208.209,178.259 C209.276,177.992 210.876,177.193 210.876,176.126" fill="#F4BB9D"/>
    <path d="M204.744,174.793 L205.543,181.727 C205.543,181.727 205.278,183.456 206.611,183.188 C207.944,182.923 208.476,183.325 208.476,181.459 C208.476,179.593 208.476,179.593 208.476,179.593 L208.209,178.259 C209.276,177.992 210.876,177.193 210.876,176.126" fill-opacity="0" stroke="#1A1919" stroke-width="1.2" stroke-linecap="round" stroke-linejoin="round"/>
    <path d="M203.276,170.526 C204.077,170.793 209.944,171.859 209.944,171.859 L210.209,169.192 L203.543,168.393 L203.276,170.526" fill="#FFFFFE"/>
    <path d="M203.276,170.526 C204.077,170.793 209.944,171.859 209.944,171.859 L210.209,169.192 L203.543,168.393 L203.276,170.526 z" fill-opacity="0" stroke="#1A1919" stroke-width="1.2" stroke-linecap="round" stroke-linejoin="round"/>
    <path d="M56.21,257.726 L56.281,258.079 L57.01,261.726 C57.01,261.726 60.477,263.859 62.343,263.859 C64.21,263.859 71.144,264.392 72.744,264.125 C74.343,263.859 74.61,263.059 75.144,262.259 C75.677,261.459 74.877,259.325 74.877,259.325 L56.21,257.726" fill="#343534"/>
    <path d="M56.21,257.726 L56.281,258.079 L57.01,261.726 C57.01,261.726 60.477,263.859 62.343,263.859 C64.21,263.859 71.144,264.392 72.744,264.125 C74.343,263.859 74.61,263.059 75.144,262.259 C75.677,261.459 74.877,259.325 74.877,259.325 L56.21,257.726 z" fill-opacity="0" stroke="#1A1919" stroke-width="1.2" stroke-linecap="round" stroke-linejoin="round"/>
    <path d="M46.876,257.992 L47.677,260.393 L54.077,261.459 L57.01,260.659 L56.21,256.926 L46.876,257.992" fill="#343534"/>
    <path d="M46.876,257.992 L47.677,260.393 L54.077,261.459 L57.01,260.659 L56.21,256.926 L46.876,257.992 z" fill-opacity="0" stroke="#1A1919" stroke-width="1.2" stroke-linecap="round" stroke-linejoin="round"/>
    <path d="M32.477,263.325 C32.21,263.859 31.677,265.992 32.744,266.793 C33.81,267.593 37.277,269.192 39.943,268.926 C40.204,268.6 41.519,268.023 42.077,268.125 C43.802,268.443 44.21,269.992 44.21,269.992 C44.21,269.992 48.743,272.926 53.01,273.192 C57.277,273.459 62.61,273.192 64.744,271.593 C65.01,270.525 64.744,268.125 64.744,268.125 C64.744,268.125 33.01,262.258 32.477,263.325" fill="#343534"/>
    <path d="M32.477,263.325 C32.21,263.859 31.677,265.992 32.744,266.793 C33.81,267.593 37.277,269.192 39.943,268.926 C40.204,268.6 41.519,268.023 42.077,268.125 C43.802,268.443 44.21,269.992 44.21,269.992 C44.21,269.992 48.743,272.926 53.01,273.192 C57.277,273.459 62.61,273.192 64.744,271.593 C65.01,270.525 64.744,268.125 64.744,268.125 C64.744,268.125 33.01,262.258 32.477,263.325 z" fill-opacity="0" stroke="#1A1919" stroke-width="1.2" stroke-linecap="round" stroke-linejoin="round"/>
    <path d="M58.077,250.525 C58.077,250.525 61.544,255.593 63.677,256.393 C65.81,257.192 73.544,257.726 74.877,259.325 C76.21,260.926 75.676,262.258 74.61,262.525 C73.544,262.793 67.677,262.792 64.744,262.525 C61.81,262.259 58.076,261.992 57.01,260.659 C55.943,259.325 54.876,258.525 54.876,258.525 L54.61,259.325 C54.61,259.325 48.743,259.326 47.677,258.793 C46.61,258.259 46.61,251.593 46.61,251.593 L58.077,250.525" fill="#343534"/>
    <path d="M58.077,250.525 C58.077,250.525 61.544,255.593 63.677,256.393 C65.81,257.192 73.544,257.726 74.877,259.325 C76.21,260.926 75.676,262.258 74.61,262.525 C73.544,262.793 67.677,262.792 64.744,262.525 C61.81,262.259 58.076,261.992 57.01,260.659 C55.943,259.325 54.876,258.525 54.876,258.525 L54.61,259.325 C54.61,259.325 48.743,259.326 47.677,258.793 C46.61,258.259 46.61,251.593 46.61,251.593 L58.077,250.525 z" fill-opacity="0" stroke="#1A1919" stroke-width="1.2" stroke-linecap="round" stroke-linejoin="round"/>
    <path d="M33.277,261.726 C32.744,261.992 31.943,262.258 32.477,263.325 C34.077,265.459 39.943,266.792 41.01,266.525 C42.077,266.259 44.21,267.325 44.21,267.325 C44.21,267.325 50.469,269.714 52.744,270.525 C56.477,271.858 63.41,270.793 65.01,269.992 C65.277,268.659 65.277,268.125 63.144,267.059 C61.01,265.992 57.81,265.46 55.677,264.393 C53.543,263.325 49.01,260.125 47.943,257.726 C46.876,255.325 34.61,260.392 33.277,261.726" fill="#343534"/>
    <path d="M33.277,261.726 C32.744,261.992 31.943,262.258 32.477,263.325 C34.077,265.459 39.943,266.792 41.01,266.525 C42.077,266.259 44.21,267.325 44.21,267.325 C44.21,267.325 50.469,269.714 52.744,270.525 C56.477,271.858 63.41,270.793 65.01,269.992 C65.277,268.659 65.277,268.125 63.144,267.059 C61.01,265.992 57.81,265.46 55.677,264.393 C53.543,263.325 49.01,260.125 47.943,257.726 C46.876,255.325 34.61,260.392 33.277,261.726 z" fill-opacity="0" stroke="#1A1919" stroke-width="1.2" stroke-linecap="round" stroke-linejoin="round"/>
    <path d="M81.544,171.325 C81.81,172.659 79.144,179.859 76.744,183.059 C74.343,186.259 67.144,211.059 66.077,214.525 C65.01,217.992 64.477,220.393 63.677,221.992 C62.877,223.593 61.81,223.858 61.277,228.125 C60.744,232.393 57.276,244.125 57.81,245.459 C58.343,246.793 59.143,245.46 59.41,247.593 C59.677,249.726 59.144,252.125 59.144,252.125 C59.144,252.125 54.61,252.926 50.343,253.459 C46.077,253.992 42.876,252.659 42.876,252.659 C42.876,252.659 47.41,217.726 47.677,216.659 C47.943,215.593 52.744,213.459 52.744,213.459 C52.744,213.459 58.077,178.258 58.077,175.325 C58.077,172.393 81.544,171.325 81.544,171.325" fill="#464D5A"/>
    <path d="M81.544,171.325 C81.81,172.659 79.144,179.859 76.744,183.059 C74.343,186.259 67.144,211.059 66.077,214.525 C65.01,217.992 64.477,220.393 63.677,221.992 C62.877,223.593 61.81,223.858 61.277,228.125 C60.744,232.393 57.276,244.125 57.81,245.459 C58.343,246.793 59.143,245.46 59.41,247.593 C59.677,249.726 59.144,252.125 59.144,252.125 C59.144,252.125 54.61,252.926 50.343,253.459 C46.077,253.992 42.876,252.659 42.876,252.659 C42.876,252.659 47.41,217.726 47.677,216.659 C47.943,215.593 52.744,213.459 52.744,213.459 C52.744,213.459 58.077,178.258 58.077,175.325 C58.077,172.393 81.544,171.325 81.544,171.325 z" fill-opacity="0" stroke="#1A1919" stroke-width="1.2" stroke-linecap="round" stroke-linejoin="round"/>
    <path d="M39.144,176.659 C39.144,177.459 38.876,180.393 40.477,182.793 C42.077,185.192 42.876,186.259 42.876,186.259 C42.876,186.259 42.343,186.525 42.343,188.125 C42.343,189.726 39.943,210.793 39.144,216.659 C38.343,222.525 33.544,230.525 33.544,236.659 C33.544,242.793 33.01,252.926 32.477,255.325 C31.943,257.726 31.41,259.325 31.41,259.325 L33.277,261.726 C35.41,261.459 47.144,258.793 48.744,257.192 C50.343,255.593 50.077,252.66 50.077,251.593 C50.077,250.525 46.343,249.992 47.677,248.926 C49.01,247.859 50.61,247.059 50.877,245.726 C51.144,244.393 52.477,233.459 53.277,229.459 C54.077,225.459 56.743,218.525 57.01,216.659 C57.277,214.793 66.076,188.393 67.41,186.259 C68.744,184.125 70.343,181.192 71.144,180.659" fill="#464D5A"/>
    <path d="M39.144,176.659 C39.144,177.459 38.876,180.393 40.477,182.793 C42.077,185.192 42.876,186.259 42.876,186.259 C42.876,186.259 42.343,186.525 42.343,188.125 C42.343,189.726 39.943,210.793 39.144,216.659 C38.343,222.525 33.544,230.525 33.544,236.659 C33.544,242.793 33.01,252.926 32.477,255.325 C31.943,257.726 31.41,259.325 31.41,259.325 L33.277,261.726 C35.41,261.459 47.144,258.793 48.744,257.192 C50.343,255.593 50.077,252.66 50.077,251.593 C50.077,250.525 46.343,249.992 47.677,248.926 C49.01,247.859 50.61,247.059 50.877,245.726 C51.144,244.393 52.477,233.459 53.277,229.459 C54.077,225.459 56.743,218.525 57.01,216.659 C57.277,214.793 66.076,188.393 67.41,186.259 C68.744,184.125 70.343,181.192 71.144,180.659 M49.277,250.525 C48.477,251.325 45.81,254.793 42.343,255.593 M63.677,183.593 C62.877,187.325 55.677,214.793 54.876,217.192 C54.077,219.593 53.01,221.992 51.943,225.192 C50.877,228.393 50.076,229.46 49.81,233.192 C49.543,236.926 47.943,247.059 47.943,247.059 M46.876,252.926 C47.943,253.726 48.21,254.26 48.21,256.393 M74.877,182.793 C73.544,184.926 67.41,200.926 65.81,207.593 C64.21,214.259 63.144,218.792 62.077,221.726 C61.01,224.659 57.276,233.992 57.01,239.325 C56.744,244.659 54.877,246.525 55.943,247.325" fill-opacity="0" stroke="#1A1919" stroke-width="1.2" stroke-linecap="round" stroke-linejoin="round"/>
    <path d="M34.61,77.992 L31.943,81.992 L31.943,83.326 C31.677,84.126 23.943,95.06 22.343,105.726 C22.343,107.059 22.876,117.192 23.677,120.659 C24.477,124.126 31.676,147.859 31.943,148.659 C32.477,150.259 28.744,171.593 30.077,177.992 C33.81,180.126 57.277,180.926 66.877,179.059 C69.544,178.793 76.21,176.926 78.077,173.459 C78.077,172.926 79.676,169.192 80.21,165.992 C79.943,167.593 80.21,172.394 80.744,173.727 C81.277,175.059 84.21,177.192 84.21,177.192 C85.544,173.992 85.277,155.859 84.477,147.593 C83.88,141.431 81.277,120.393 76.21,110.259 C76.21,108.126 71.677,96.659 70.877,95.059 C70.077,93.459 67.41,93.726 67.41,93.726 L68.21,92.126 C68.21,92.126 58.876,86.259 55.677,84.393 C52.477,82.526 34.61,77.992 34.61,77.992" fill="#464D5A"/>
    <path d="M34.61,77.992 L31.943,81.992 L31.943,83.326 C31.677,84.126 23.943,95.06 22.343,105.726 C22.343,107.059 22.876,117.192 23.677,120.659 C24.477,124.126 31.676,147.859 31.943,148.659 C32.477,150.259 28.744,171.593 30.077,177.992 C33.81,180.126 57.277,180.926 66.877,179.059 C69.544,178.793 76.21,176.926 78.077,173.459 C78.077,172.926 79.676,169.192 80.21,165.992 C79.943,167.593 80.21,172.394 80.744,173.727 C81.277,175.059 84.21,177.192 84.21,177.192 C85.544,173.992 85.277,155.859 84.477,147.593 C83.88,141.431 81.277,120.393 76.21,110.259 C76.21,108.126 71.677,96.659 70.877,95.059 C70.077,93.459 67.41,93.726 67.41,93.726 L68.21,92.126 C68.21,92.126 58.876,86.259 55.677,84.393 C52.477,82.526 34.61,77.992 34.61,77.992 z" fill-opacity="0" stroke="#1A1919" stroke-width="1.2" stroke-linecap="round" stroke-linejoin="round"/>
    <path d="M30.896,26.75 C28.835,27.52 29.041,26.96 27.631,28.729 C26.221,30.499 24.829,32.393 23.785,35.068 C21.705,40.402 21.085,49.164 21.283,50.916 C21.792,55.421 26.376,65.101 32.099,70.626 C36.205,74.59 35.933,73.681 36.728,73.591 C38.878,73.617 59.023,59.531 59.023,59.531 L82.963,43.406 C83.608,41.992 88.398,36.888 83.7,28.563 C81.661,24.768 71.808,15.952 61.97,14.381 C52.13,12.81 35.078,11.517 31.951,24.216 L30.896,26.75" fill="#2D2118"/>
    <path d="M30.896,26.75 C28.835,27.52 29.041,26.96 27.631,28.729 C26.221,30.499 24.829,32.393 23.785,35.068 C21.705,40.402 21.085,49.164 21.283,50.916 C21.792,55.421 26.376,65.101 32.099,70.626 C36.205,74.59 35.933,73.681 36.728,73.591 C38.878,73.617 59.023,59.531 59.023,59.531 L82.963,43.406 C83.608,41.992 88.398,36.888 83.7,28.563 C81.661,24.768 71.808,15.952 61.97,14.381 C52.13,12.81 35.078,11.517 31.951,24.216 L30.896,26.75 z" fill-opacity="0" stroke="#1A1919" stroke-width="1.2" stroke-linecap="round" stroke-linejoin="round"/>
    <path d="M83.108,42.316 C83.258,43.642 82.122,50.211 81.567,52.42 C84.166,56.42 86.5,60.45 85.885,62.13 C85.27,63.81 83.299,65.374 82.21,65.229 C81.27,66.409 79.04,70.418 78.629,71.538 C78.219,72.658 76.809,74.427 76.224,76.372 C75.638,78.317 73.378,82.061 70.229,82.686 C67.079,83.31 61.6,82.319 57.915,80.589 C57.915,80.589 55.894,86.453 56.014,87.513 C56.014,87.513 37.122,79.451 36.267,79.011 C36.267,79.011 37.173,75.151 36.903,72.767 C38.933,71.732 41.933,69.782 43.343,68.013 C41.634,67.133 37.851,59.778 37.701,58.453 C37.551,57.128 37.726,56.303 37.726,56.303 C38.456,53.268 40.892,48.7 42.626,47.43 C45.896,47.866 45.367,47.925 47.226,50.13 C49.085,52.335 51.364,58.251 49.988,62.7 C51.283,62.285 55.048,59.981 55.988,58.801 C61.369,54.167 69.196,35.57 67.122,29.095 C69.067,29.681 71.337,30.766 73.491,33.206 C75.892,35.925 77.275,40.56 77.404,46.45 C78.433,46.065 80.869,41.497 80.869,41.497 L81.099,38.787 C81.099,38.787 82.664,40.757 83.108,42.316" fill="#F4BB9D"/>
    <path d="M83.108,42.316 C83.258,43.642 82.122,50.211 81.567,52.42 C84.166,56.42 86.5,60.45 85.885,62.13 C85.27,63.81 83.299,65.374 82.21,65.229 C81.27,66.409 79.04,70.418 78.629,71.538 C78.219,72.658 76.809,74.427 76.224,76.372 C75.638,78.317 73.378,82.061 70.229,82.686 C67.079,83.31 61.6,82.319 57.915,80.589 C57.915,80.589 55.894,86.453 56.014,87.513 C56.014,87.513 37.122,79.451 36.267,79.011 C36.267,79.011 37.173,75.151 36.903,72.767 C38.933,71.732 41.933,69.782 43.343,68.013 C41.634,67.133 37.851,59.778 37.701,58.453 C37.551,57.128 37.726,56.303 37.726,56.303 C38.456,53.268 40.892,48.7 42.626,47.43 C45.896,47.866 45.367,47.925 47.226,50.13 C49.085,52.335 51.364,58.251 49.988,62.7 C51.283,62.285 55.048,59.981 55.988,58.801 C61.369,54.167 69.196,35.57 67.122,29.095 C69.067,29.681 71.337,30.766 73.491,33.206 C75.892,35.925 77.275,40.56 77.404,46.45 C78.433,46.065 80.869,41.497 80.869,41.497 L81.099,38.787 C81.099,38.787 82.664,40.757 83.108,42.316 z" fill-opacity="0" stroke="#1A1919" stroke-width="1.2" stroke-linecap="round" stroke-linejoin="round"/>
    <path d="M73.345,52.456 C73.089,54.279 72.291,55.675 71.562,55.572 C70.832,55.47 70.449,53.91 70.704,52.086 C70.959,50.264 71.757,48.868 72.486,48.97 C73.216,49.072 73.6,50.633 73.345,52.456" fill="#1A1919"/>
    <path d="M69.765,40.604 C68.88,39.899 67.351,40.609 65.945,44.794 M78.781,27.777 C79.726,29.012 81.21,35.017 81.099,38.787 M57.792,32.029 C58.977,35.384 59.864,52.727 55.988,58.801 M37.845,26.501 C38.965,26.911 45.599,30.992 43.421,47.34 M31.684,38.469 C31.278,42.004 26.862,57.531 40.608,69.933 M25.917,56.296 C27.101,59.651 30.975,67.801 34.129,69.591" fill-opacity="0" stroke="#1A1919" stroke-width="1.2" stroke-linecap="round" stroke-linejoin="round"/>
    <path d="M43.21,59.708 L45.539,61.324 L44.749,63.829 C42.882,64.361 40.889,62.923 37.701,58.453 C36.054,56.146 36.182,49.769 37.592,47.999 C39.002,46.229 41.892,48.05 44.636,50.96" fill="#F4BB9D"/>
    <path d="M43.21,59.708 L45.539,61.324 L44.749,63.829 C42.882,64.361 40.889,62.923 37.701,58.453 C36.054,56.146 36.182,49.769 37.592,47.999 C39.002,46.229 41.892,48.05 44.636,50.96" fill-opacity="0" stroke="#1A1919" stroke-width="1.2" stroke-linecap="round" stroke-linejoin="round"/>
    <path d="M43.615,56.174 C42.23,55.794 41.61,55.059 41.61,55.059 C41.61,55.059 42.875,54.38 41.931,53.145 C40.986,51.909 39.452,50.204 39.306,51.294 C39.161,52.384 39.55,55.829 40.496,57.064" fill="#F4BB9D"/>
    <path d="M43.615,56.174 C42.23,55.794 41.61,55.059 41.61,55.059 C41.61,55.059 42.875,54.38 41.931,53.145 C40.986,51.909 39.452,50.204 39.306,51.294 C39.161,52.384 39.55,55.829 40.496,57.064 M67.901,66.847 C69.496,69.081 73.975,70.722 76.565,69.893 L77.18,68.213" fill-opacity="0" stroke="#1A1919" stroke-width="1.2" stroke-linecap="round" stroke-linejoin="round"/>
    <path d="M59.143,87.592 C58.876,86.525 56.743,83.326 56.743,83.326 L55.41,87.059 C53.277,84.926 37.277,76.126 35.943,75.592 C35.943,75.592 34.61,77.726 34.343,79.326 C41.543,84.392 58.343,98.526 63.41,103.059 C68.477,107.592 70.877,110.259 73.277,112.659 C72.21,108.659 65.81,97.192 63.41,94.526 C61.01,91.859 59.143,87.592 59.143,87.592" fill="#FFFFFE"/>
    <path d="M59.143,87.592 C58.876,86.525 56.743,83.326 56.743,83.326 L55.41,87.059 C53.277,84.926 37.277,76.126 35.943,75.592 C35.943,75.592 34.61,77.726 34.343,79.326 C41.543,84.392 58.343,98.526 63.41,103.059 C68.477,107.592 70.877,110.259 73.277,112.659 C72.21,108.659 65.81,97.192 63.41,94.526 C61.01,91.859 59.143,87.592 59.143,87.592 z" fill-opacity="0" stroke="#1A1919" stroke-width="1.2" stroke-linecap="round" stroke-linejoin="round"/>
    <path d="M53.81,89.192 C54.61,87.859 57.81,87.06 59.41,87.326 C61.01,88.659 62.61,90.526 63.41,93.459 C65.01,94.792 71.943,102.526 73.277,112.659 C71.943,112.126 62.343,101.726 61.543,101.192 C60.477,100.126 58.876,94.259 58.876,94.259 L54.343,91.059 L52.477,90.526 L53.81,89.192" fill="#D8127D"/>
    <path d="M53.81,89.192 C54.61,87.859 57.81,87.06 59.41,87.326 C61.01,88.659 62.61,90.526 63.41,93.459 C65.01,94.792 71.943,102.526 73.277,112.659 C71.943,112.126 62.343,101.726 61.543,101.192 C60.477,100.126 58.876,94.259 58.876,94.259 L54.343,91.059 L52.477,90.526 L53.81,89.192 z M33.81,84.659 C34.343,85.459 38.876,91.593 39.677,92.126 C40.477,92.659 45.277,91.859 45.277,91.859 L41.543,95.059 C41.543,95.059 67.41,111.859 72.21,113.993 M73.277,111.859 C73.277,112.659 73.01,116.392 73.544,117.459 C74.077,118.526 75.943,125.993 77.277,131.593 C78.61,137.192 80.476,154.526 80.21,164.926 M76.21,111.059 C76.21,112.659 75.943,114.526 75.677,115.326" fill-opacity="0" stroke="#1A1919" stroke-width="1.2" stroke-linecap="round" stroke-linejoin="round"/>
    <path d="M65.01,148.926 C66.61,149.192 70.61,150.859 70.61,150.859 C71.943,150.059 74.61,149.659 76.21,150.459 C77.81,151.259 79.676,152.926 79.676,152.926 C80.21,152.659 82.076,153.459 83.676,155.593 C85.276,157.727 86.876,161.525 88.21,162.059 C90.61,162.325 94.21,163.594 95.276,164.126 C96.343,164.659 96.61,165.192 96.61,165.992 C96.61,166.793 95.61,167.659 95.61,167.659 C95.61,167.659 95.81,168.926 94.476,169.192 C94.21,171.593 92.61,170.793 92.61,170.793 L90.61,170.259 C91.143,172.393 91.943,171.059 91.143,172.393 C90.343,173.727 88.744,173.191 87.41,172.659 C86.076,172.126 82.877,169.993 82.076,169.727 C81.276,169.459 78.343,166.793 78.343,166.793 C78.343,166.793 72.743,161.727 69.543,158.793 C68.476,159.326 62.076,157.727 62.076,157.727 C61.276,154.793 63.943,148.926 63.943,148.926 L65.01,148.926" fill="#F4BB9D"/>
    <path d="M65.01,148.926 C66.61,149.192 70.61,150.859 70.61,150.859 C71.943,150.059 74.61,149.659 76.21,150.459 C77.81,151.259 79.676,152.926 79.676,152.926 C80.21,152.659 82.076,153.459 83.676,155.593 C85.276,157.727 86.876,161.525 88.21,162.059 C90.61,162.325 94.21,163.594 95.276,164.126 C96.343,164.659 96.61,165.192 96.61,165.992 C96.61,166.793 95.61,167.659 95.61,167.659 C95.61,167.659 95.81,168.926 94.476,169.192 C94.21,171.593 92.61,170.793 92.61,170.793 L90.61,170.259 C91.143,172.393 91.943,171.059 91.143,172.393 C90.343,173.727 88.744,173.191 87.41,172.659 C86.076,172.126 82.877,169.993 82.076,169.727 C81.276,169.459 78.343,166.793 78.343,166.793 C78.343,166.793 72.743,161.727 69.543,158.793 C68.476,159.326 62.076,157.727 62.076,157.727 C61.276,154.793 63.943,148.926 63.943,148.926 L65.01,148.926 z M79.81,155.459 C80.81,156.659 81.01,157.525 81.01,159.659 C81.01,161.689 83.143,162.526 83.143,162.526 C81.336,162.074 84.119,162.655 84.743,163.593 C85.276,164.393 85.477,165.659 85.21,166.459 C84.943,167.259 85.277,167.859 83.41,167.059 C81.543,166.259 81.21,165.192 80.41,164.659 C79.61,164.125 77.81,162.526 77.81,162.526 L75.61,159.859 M86.81,163.259 C86.81,163.259 88.932,164.443 90.01,164.659 C91.343,164.926 91.124,164.937 93.21,165.459 C94.81,165.859 95.41,167.259 95.41,167.259 M86.01,165.059 C86.744,165.304 87.41,166.059 89.81,167.059 C90.794,167.469 92.01,167.059 93.41,168.059 C94.096,168.55 93.943,168.392 93.943,170.259 M85.81,166.859 C86.876,168.191 86.343,167.859 87.676,168.926 C89.01,169.992 90.609,170.259 90.876,171.059" fill-opacity="0" stroke="#1A1919" stroke-width="1.2" stroke-linecap="round" stroke-linejoin="round"/>
    <path d="M65.277,147.592 L68.21,147.592 C68.21,147.592 66.877,158.792 66.61,160.125 C65.81,160.659 62.343,159.059 62.343,159.059 L65.277,147.592" fill="#FFFFFE"/>
    <path d="M65.277,147.592 L68.21,147.592 C68.21,147.592 66.877,158.792 66.61,160.125 C65.81,160.659 62.343,159.059 62.343,159.059 L65.277,147.592 z" fill-opacity="0" stroke="#1A1919" stroke-width="1.2" stroke-linecap="round" stroke-linejoin="round"/>
    <path d="M22.876,127.326 C22.343,125.993 21.01,116.659 20.743,114.792 C21.81,103.593 27.677,98.793 29.81,99.059 C32.477,98.793 40.21,104.393 41.81,112.393 C43.41,120.393 40.743,117.192 41.543,117.459 C42.343,117.726 42.61,121.726 42.61,121.726 C42.61,121.726 44.477,135.859 44.477,136.659 C44.477,137.459 43.143,138.259 43.143,138.259 L45.543,137.993 L66.343,146.793 C65.543,149.192 63.144,158.792 62.877,160.659 C60.743,160.393 35.194,154.031 29.81,149.992 C27.677,148.393 26.077,144.659 26.077,143.593 C26.077,142.526 23.144,131.326 22.876,127.326" fill="#464D5A"/>
    <path d="M22.876,127.326 C22.343,125.993 21.01,116.659 20.743,114.792 C21.81,103.593 27.677,98.793 29.81,99.059 C32.477,98.793 40.21,104.393 41.81,112.393 C43.41,120.393 40.743,117.192 41.543,117.459 C42.343,117.726 42.61,121.726 42.61,121.726 C42.61,121.726 44.477,135.859 44.477,136.659 C44.477,137.459 43.143,138.259 43.143,138.259 L45.543,137.993 L66.343,146.793 C65.543,149.192 63.144,158.792 62.877,160.659 C60.743,160.393 35.194,154.031 29.81,149.992 C27.677,148.393 26.077,144.659 26.077,143.593 C26.077,142.526 23.144,131.326 22.876,127.326 z M30.61,143.593 C31.41,142.259 37.543,137.726 41.81,136.926 M41.81,138.526 C40.477,139.059 35.677,142.526 34.61,143.593 M40.743,117.192 C39.143,117.459 29.543,115.326 26.61,113.726 M79.685,119.271 C79.685,120.515 78.677,121.522 77.433,121.522 C76.19,121.522 75.182,120.515 75.182,119.271 C75.182,118.027 76.19,117.019 77.433,117.019 C78.677,117.019 79.685,118.027 79.685,119.271 z M52.477,90.526 L50.877,93.192" fill-opacity="0" stroke="#1A1919" stroke-width="1.2" stroke-linecap="round" stroke-linejoin="round"/>
    <path d="M72.476,58.259 C72.476,59.658 70.447,60.792 67.943,60.792 C65.439,60.792 63.41,59.658 63.41,58.259 C63.41,56.86 65.439,55.726 67.943,55.726 C70.447,55.726 72.476,56.86 72.476,58.259" fill="#EB9174"/>
    <path d="M83.677,139.859 C83.677,141.037 82.722,141.992 81.544,141.992 C80.365,141.992 79.41,141.037 79.41,139.859 C79.41,138.681 80.365,137.726 81.544,137.726 C82.722,137.726 83.677,138.681 83.677,139.859 z" fill-opacity="0" stroke="#1A1919" stroke-width="1.2" stroke-linecap="round" stroke-linejoin="round"/>
    <path d="M209.411,149.456 C209.143,151.323 202.609,167.192 203.143,167.992 C203.676,168.793 207.676,169.06 209.01,169.326 C210.343,169.593 210.343,149.859 210.343,149.859 L209.411,149.456" fill="#636463"/>
    <path d="M209.411,149.456 C209.143,151.323 202.609,167.192 203.143,167.992 C203.676,168.793 207.676,169.06 209.01,169.326 C210.343,169.593 210.343,149.859 210.343,149.859 L209.411,149.456 z" fill-opacity="0" stroke="#1A1919" stroke-width="1.2" stroke-linecap="round" stroke-linejoin="round"/>
    <path d="M203.944,264.125 L203.41,266.525 C203.41,266.525 209.01,270.526 215.143,270.259 C221.276,269.992 223.143,269.459 223.143,269.459 L223.676,268.659 L224.476,269.459 C224.476,269.459 231.677,270.259 232.744,269.459 C233.81,268.659 233.81,267.858 233.276,265.992 C232.744,264.125 203.944,264.125 203.944,264.125" fill="#343534"/>
    <path d="M203.944,264.125 L203.41,266.525 C203.41,266.525 209.01,270.526 215.143,270.259 C221.276,269.992 223.143,269.459 223.143,269.459 L223.676,268.659 L224.476,269.459 C224.476,269.459 231.677,270.259 232.744,269.459 C233.81,268.659 233.81,267.858 233.276,265.992 C232.744,264.125 203.944,264.125 203.944,264.125 z" fill-opacity="0" stroke="#1A1919" stroke-width="1.2" stroke-linecap="round" stroke-linejoin="round"/>
    <path d="M221.81,257.992 C221.81,257.992 217.543,261.992 214.876,262.259 C212.209,262.525 207.677,261.586 207.677,261.586 C207.677,261.586 201.811,263.325 204.744,264.926 C207.676,266.525 212.209,268.926 217.81,267.859 C223.41,266.792 223.41,266.792 223.41,266.792 C223.41,266.792 223.411,267.592 224.744,267.592 C226.077,267.592 232.744,267.059 232.744,267.059 C232.744,267.059 236.744,261.191 236.476,259.325 C236.209,257.459 221.81,257.992 221.81,257.992" fill="#343534"/>
    <path d="M221.81,257.992 C221.81,257.992 217.543,261.992 214.876,262.259 C212.209,262.525 207.677,261.586 207.677,261.586 C207.677,261.586 201.811,263.325 204.744,264.926 C207.676,266.525 212.209,268.926 217.81,267.859 C223.41,266.792 223.41,266.792 223.41,266.792 C223.41,266.792 223.411,267.592 224.744,267.592 C226.077,267.592 232.744,267.059 232.744,267.059 C232.744,267.059 236.744,261.191 236.476,259.325 C236.209,257.459 221.81,257.992 221.81,257.992 z" fill-opacity="0" stroke="#1A1919" stroke-width="1.2" stroke-linecap="round" stroke-linejoin="round"/>
    <path d="M221.01,273.459 C221.01,274.525 221.01,276.392 221.01,276.392 C221.01,276.392 224.21,278.525 226.343,278.525 C228.476,278.525 232.476,279.059 241.81,275.059 L242.343,273.459 C242.343,272.926 243.143,274.792 243.143,274.792 C243.143,274.792 245.543,275.324 247.944,274.792 C250.343,274.259 249.276,271.059 249.276,269.459 C249.276,267.859 240.209,269.726 240.209,269.726 L221.01,273.459" fill="#343534"/>
    <path d="M221.01,273.459 C221.01,274.525 221.01,276.392 221.01,276.392 C221.01,276.392 224.21,278.525 226.343,278.525 C228.476,278.525 232.476,279.059 241.81,275.059 L242.343,273.459 C242.343,272.926 243.143,274.792 243.143,274.792 C243.143,274.792 245.543,275.324 247.944,274.792 C250.343,274.259 249.276,271.059 249.276,269.459 C249.276,267.859 240.209,269.726 240.209,269.726 L221.01,273.459 z" fill-opacity="0" stroke="#1A1919" stroke-width="1.2" stroke-linecap="round" stroke-linejoin="round"/>
    <path d="M233.543,264.125 C232.209,265.992 231.41,267.325 228.744,268.926 C226.611,269.192 223.41,269.727 222.077,271.059 C220.744,272.392 220.387,274.199 222.077,275.325 C223.676,276.392 224.719,276.945 229.01,276.659 C233.01,276.392 238.077,274.525 239.676,273.726 C240.209,272.659 241.543,272.125 241.543,272.125 L242.61,272.659 C242.61,272.659 247.411,272.392 248.744,271.592 C249.543,270.525 249.543,269.459 248.744,265.459 L233.543,264.125" fill="#343534"/>
    <path d="M233.543,264.125 C232.209,265.992 231.41,267.325 228.744,268.926 C226.611,269.192 223.41,269.727 222.077,271.059 C220.744,272.392 220.387,274.199 222.077,275.325 C223.676,276.392 224.719,276.945 229.01,276.659 C233.01,276.392 238.077,274.525 239.676,273.726 C240.209,272.659 241.543,272.125 241.543,272.125 L242.61,272.659 C242.61,272.659 247.411,272.392 248.744,271.592 C249.543,270.525 249.543,269.459 248.744,265.459 L233.543,264.125 z" fill-opacity="0" stroke="#1A1919" stroke-width="1.2" stroke-linecap="round" stroke-linejoin="round"/>
    <path d="M234.077,186.259 C234.077,186.259 232.476,197.192 232.476,200.125 C232.476,203.059 233.276,229.726 234.343,233.459 C235.409,237.192 237.81,259.859 237.81,259.859 L235.143,260.659 L232.476,261.192 C222.876,262.26 221.01,258.525 221.01,258.525 C221.01,258.525 221.01,258.525 221.81,255.593 C222.61,252.66 218.61,231.059 217.543,228.393 C216.476,225.727 216.476,220.659 215.676,217.992 C214.876,215.326 214.61,199.859 214.077,192.926 C213.543,185.992 211.676,176.926 211.41,175.325 L210.343,171.859" fill="#636463"/>
    <path d="M234.077,186.259 C234.077,186.259 232.476,197.192 232.476,200.125 C232.476,203.059 233.276,229.726 234.343,233.459 C235.409,237.192 237.81,259.859 237.81,259.859 L235.143,260.659 L232.476,261.192 C222.876,262.26 221.01,258.525 221.01,258.525 C221.01,258.525 221.01,258.525 221.81,255.593 C222.61,252.66 218.61,231.059 217.543,228.393 C216.476,225.727 216.476,220.659 215.676,217.992 C214.876,215.326 214.61,199.859 214.077,192.926 C213.543,185.992 211.676,176.926 211.41,175.325 L210.343,171.859" fill-opacity="0" stroke="#1A1919" stroke-width="1.2" stroke-linecap="round" stroke-linejoin="round"/>
    <path d="M221.01,180.926 C222.61,182.793 225.01,184.926 225.01,184.926 C225.01,184.926 230.343,204.125 231.143,214.259 C231.944,224.393 233.01,236.926 233.276,240.125 C233.543,243.325 233.276,257.459 233.01,258.259 C232.744,259.059 234.077,260.926 234.077,260.926 C234.077,260.926 231.41,261.992 231.41,263.059 C231.41,264.125 230.343,265.191 231.944,265.726 C233.543,266.259 242.077,268.126 249.543,265.992 C250.343,265.192 249.81,264.125 249.81,264.125 L249.543,260.926 C249.543,260.926 250.343,259.592 250.61,258.525 C250.876,257.459 250.876,238.793 250.61,230.259 C249.81,229.459 249.009,226.792 248.744,225.726 C248.744,223.859 250.077,219.593 249.81,218.259 C249.543,216.926 250.343,202.259 250.61,193.459 C250.876,184.659 252.476,184.926 253.276,184.125 C254.077,183.325 256.209,176.926 256.209,176.926 L229.01,173.459" fill="#636463"/>
    <path d="M221.01,180.926 C222.61,182.793 225.01,184.926 225.01,184.926 C225.01,184.926 230.343,204.125 231.143,214.259 C231.944,224.393 233.01,236.926 233.276,240.125 C233.543,243.325 233.276,257.459 233.01,258.259 C232.744,259.059 234.077,260.926 234.077,260.926 C234.077,260.926 231.41,261.992 231.41,263.059 C231.41,264.125 230.343,265.191 231.944,265.726 C233.543,266.259 242.077,268.126 249.543,265.992 C250.343,265.192 249.81,264.125 249.81,264.125 L249.543,260.926 C249.543,260.926 250.343,259.592 250.61,258.525 C250.876,257.459 250.876,238.793 250.61,230.259 C249.81,229.459 249.009,226.792 248.744,225.726 C248.744,223.859 250.077,219.593 249.81,218.259 C249.543,216.926 250.343,202.259 250.61,193.459 C250.876,184.659 252.476,184.926 253.276,184.125 C254.077,183.325 256.209,176.926 256.209,176.926 L229.01,173.459 M215.41,185.192 C216.209,188.659 218.077,217.992 218.077,219.059 C218.077,220.125 219.41,225.726 219.41,225.726 C219.41,225.726 224.744,249.192 223.676,255.593 M229.01,185.992 C230.876,192.926 235.676,223.859 235.676,226.793 C235.676,229.726 236.476,254.259 235.676,258.259" fill-opacity="0" stroke="#1A1919" stroke-width="1.2" stroke-linecap="round" stroke-linejoin="round"/>
    <path d="M258.61,81.726 L262.077,86.526 L262.077,88.126 C264.209,89.993 271.676,99.059 273.276,103.326 C274.876,107.593 275.676,109.993 275.676,112.126 C275.41,117.192 263.676,175.593 263.676,177.192 C263.41,178.526 250.077,181.993 241.543,181.727 C233.01,181.459 221.81,180.126 217.01,177.992 C214.61,176.393 214.077,173.459 214.077,173.459 C214.077,175.326 211.675,176.971 210.876,176.926 C209.611,176.855 209.619,176.86 208.209,176.659 C207.944,170.526 207.944,143.326 214.077,120.659 C214.343,118.792 215.676,104.126 217.81,101.459 C220.757,97.775 223.143,95.326 224.209,94.792 C224.209,94.792 226.077,92.126 226.343,91.059 C226.61,89.993 230.877,87.593 232.744,86.526 C234.61,85.459 258.61,81.726 258.61,81.726" fill="#636463"/>
    <path d="M258.61,81.726 L262.077,86.526 L262.077,88.126 C264.209,89.993 271.676,99.059 273.276,103.326 C274.876,107.593 275.676,109.993 275.676,112.126 C275.41,117.192 263.676,175.593 263.676,177.192 C263.41,178.526 250.077,181.993 241.543,181.727 C233.01,181.459 221.81,180.126 217.01,177.992 C214.61,176.393 214.077,173.459 214.077,173.459 C214.077,175.326 211.675,176.971 210.876,176.926 C209.611,176.855 209.619,176.86 208.209,176.659 C207.944,170.526 207.944,143.326 214.077,120.659 C214.343,118.792 215.676,104.126 217.81,101.459 C220.757,97.775 223.143,95.326 224.209,94.792 C224.209,94.792 226.077,92.126 226.343,91.059 C226.61,89.993 230.877,87.593 232.744,86.526 C234.61,85.459 258.61,81.726 258.61,81.726 z" fill-opacity="0" stroke="#1A1919" stroke-width="1.2" stroke-linecap="round" stroke-linejoin="round"/>
    <path d="M228.476,30.259 C223.944,25.726 219.944,22.792 223.41,24.126 C226.876,25.459 227.944,25.726 227.944,25.726 C228.209,23.326 234.61,17.726 237.01,16.659 L235.944,20.926 C239.41,17.459 242.61,16.659 244.209,16.926 C243.676,18.526 243.676,18.526 243.676,18.526 C247.944,17.459 253.898,18.17 257.81,20.126 C263.676,23.059 282.61,36.392 278.876,46.526 C280.209,49.192 279.676,57.46 277.01,62.526 C274.343,67.592 267.143,75.859 256.476,79.059 C245.81,82.259 252.744,76.392 252.744,76.392 L240.476,70.526 L228.476,30.259" fill="#2D2118"/>
    <path d="M228.476,30.259 C223.944,25.726 219.944,22.792 223.41,24.126 C226.876,25.459 227.944,25.726 227.944,25.726 C228.209,23.326 234.61,17.726 237.01,16.659 L235.944,20.926 C239.41,17.459 242.61,16.659 244.209,16.926 C243.676,18.526 243.676,18.526 243.676,18.526 C247.944,17.459 253.898,18.17 257.81,20.126 C263.676,23.059 282.61,36.392 278.876,46.526 C280.209,49.192 279.676,57.46 277.01,62.526 C274.343,67.592 267.143,75.859 256.476,79.059 C245.81,82.259 252.744,76.392 252.744,76.392 L240.476,70.526 L228.476,30.259 z M225.607,125.992 C225.607,127.235 224.599,128.244 223.355,128.244 C222.112,128.244 221.104,127.235 221.104,125.992 C221.104,124.749 222.112,123.741 223.355,123.741 C224.599,123.741 225.607,124.749 225.607,125.992 z M222.077,147.859 C222.077,149.037 221.122,149.992 219.944,149.992 C218.765,149.992 217.81,149.037 217.81,147.859 C217.81,146.681 218.765,145.726 219.944,145.726 C221.122,145.726 222.077,146.681 222.077,147.859 z" fill-opacity="0" stroke="#1A1919" stroke-width="1.2" stroke-linecap="round" stroke-linejoin="round"/>
    <path d="M230.077,28.926 C229.543,29.992 221.01,41.458 221.01,43.592 C221.01,45.726 220.476,47.059 220.476,47.059 C220.476,47.059 213.01,55.859 212.209,56.926 C211.41,57.992 211.676,58.526 212.209,59.326 C212.744,60.126 213.276,60.392 213.276,60.392 L216.209,61.726 C215.944,63.326 216.476,65.726 217.01,67.059 L217.543,68.926 C217.01,70.259 218.077,72.126 218.876,74.259 C219.676,76.392 221.997,82.296 224.477,82.792 C229.811,83.859 231.41,83.059 234.343,83.059 L234.077,92.659 L256.744,83.326 L257.276,77.992 L251.41,68.926 L254.077,61.459 L253.276,53.726 C251.944,49.726 248.744,49.992 248.744,49.992 C247.143,50.526 243.411,54.259 242.343,55.592 L239.676,54.259 C240.476,53.192 241.276,47.859 241.01,45.459 C240.744,43.059 239.41,40.659 239.41,40.659 L241.81,39.859 C241.543,38.792 241.543,34.526 241.543,34.526 C239.41,33.459 231.41,30.259 231.41,30.259 L230.077,28.926" fill="#F4BB9D"/>
    <path d="M230.077,28.926 C229.543,29.992 221.01,41.458 221.01,43.592 C221.01,45.726 220.476,47.059 220.476,47.059 C220.476,47.059 213.01,55.859 212.209,56.926 C211.41,57.992 211.676,58.526 212.209,59.326 C212.744,60.126 213.276,60.392 213.276,60.392 L216.209,61.726 C215.944,63.326 216.476,65.726 217.01,67.059 L217.543,68.926 C217.01,70.259 218.077,72.126 218.876,74.259 C219.676,76.392 221.997,82.296 224.477,82.792 C229.811,83.859 231.41,83.059 234.343,83.059 L234.077,92.659 L256.744,83.326 L257.276,77.992 L251.41,68.926 L254.077,61.459 L253.276,53.726 C251.944,49.726 248.744,49.992 248.744,49.992 C247.143,50.526 243.411,54.259 242.343,55.592 L239.676,54.259 C240.476,53.192 241.276,47.859 241.01,45.459 C240.744,43.059 239.41,40.659 239.41,40.659 L241.81,39.859 C241.543,38.792 241.543,34.526 241.543,34.526 C239.41,33.459 231.41,30.259 231.41,30.259 L230.077,28.926 z M218.876,68.392 C219.944,69.459 221.01,70.792 225.01,70.259 M229.01,36.926 C230.077,35.326 231.677,36.393 231.143,42.526" fill-opacity="0" stroke="#1A1919" stroke-width="1.2" stroke-linecap="round" stroke-linejoin="round"/>
    <path d="M245.81,53.992 C246.61,51.326 249.543,48.392 251.143,49.192 C252.744,49.992 253.01,57.993 251.41,61.726 C249.81,65.459 246.077,68.659 244.744,67.859 C243.41,67.059 243.676,65.726 243.676,65.726" fill="#F4BB9D"/>
    <path d="M245.81,53.992 C246.61,51.326 249.543,48.392 251.143,49.192 C252.744,49.992 253.01,57.993 251.41,61.726 C249.81,65.459 246.077,68.659 244.744,67.859 C243.41,67.059 243.676,65.726 243.676,65.726 M245.81,61.726 C246.343,60.926 247.41,60.126 247.41,60.126 C247.41,60.126 247.143,59.593 246.61,58.526 C246.077,57.459 246.61,56.925 247.676,54.792 C248.744,52.659 250.077,53.192 250.077,53.192 C250.077,53.192 250.343,56.926 250.077,57.726 M272.209,49.459 C271.143,53.459 270.343,58.526 266.077,61.459 M269.01,48.659 C267.41,51.592 267.677,52.393 263.944,55.326" fill-opacity="0" stroke="#1A1919" stroke-width="1.2" stroke-linecap="round" stroke-linejoin="round"/>
    <path d="M257.543,79.593 L258.876,82.526 C257.81,83.326 245.276,92.659 234.077,105.192 C227.288,112.79 222.936,114.416 221.01,118.259 C220.87,118.539 221.616,114.29 221.543,114.525 C220.476,116.925 223.944,103.859 228.209,97.192 C228.209,97.192 229.976,88.491 232.744,86.526 C234.52,85.264 234.382,84.989 234.382,84.989 L234.343,87.593 C234.343,87.593 237.543,87.859 239.143,88.126 C243.41,86.259 254.343,81.459 257.543,79.593" fill="#FFFFFE"/>
    <path d="M257.543,79.593 L258.876,82.526 C257.81,83.326 245.276,92.659 234.077,105.192 C227.288,112.79 222.936,114.416 221.01,118.259 C220.87,118.539 221.616,114.29 221.543,114.525 C220.476,116.925 223.944,103.859 228.209,97.192 C228.209,97.192 229.976,88.491 232.744,86.526 C234.52,85.264 234.382,84.989 234.382,84.989 L234.343,87.593 C234.343,87.593 237.543,87.859 239.143,88.126 C243.41,86.259 254.343,81.459 257.543,79.593 z" fill-opacity="0" stroke="#1A1919" stroke-width="1.2" stroke-linecap="round" stroke-linejoin="round"/>
    <path d="M234.343,87.593 C233.01,87.859 231.143,89.459 231.143,89.459 C231.143,89.459 230.343,91.326 230.077,94.259 C229.01,95.592 222.343,100.126 221.01,117.459 C222.077,116.126 231.81,107.659 231.81,107.659 C232.343,106.592 234.61,99.592 235.41,95.326 C237.276,92.926 238.876,91.06 238.876,91.06 L239.944,89.726 L239.143,88.126 C239.143,88.126 235.411,87.326 234.343,87.593" fill="#4B8C43"/>
    <path d="M234.343,87.593 C233.01,87.859 231.143,89.459 231.143,89.459 C231.143,89.459 230.343,91.326 230.077,94.259 C229.01,95.592 222.343,100.126 221.01,117.459 C222.077,116.126 231.81,107.659 231.81,107.659 C232.343,106.592 234.61,99.592 235.41,95.326 C237.276,92.926 238.876,91.06 238.876,91.06 L239.944,89.726 L239.143,88.126 C239.143,88.126 235.411,87.326 234.343,87.593 z M230.077,94.259 C231.41,94.792 234.61,95.326 235.41,95.326 M239.944,89.726 C240.476,89.993 241.276,96.659 241.276,97.726 M215.81,113.059 C215.543,113.859 214.611,118.792 214.077,120.659 M261.543,89.459 C261.543,91.059 261.276,92.659 260.476,92.659 C259.676,92.659 251.41,93.459 252.209,93.726 C253.01,93.993 256.209,96.393 256.209,96.393 L257.276,97.993 C253.166,100.048 225.126,118.041 219.41,122.459 C218.61,125.392 214.667,154.494 214.343,163.059 C214.01,171.855 214.078,172.186 214.811,174.656 M234.343,118.259 C239.143,120.126 246.61,120.125 249.81,120.659 M231.143,151.593 C234.61,153.727 247.565,154.029 248.476,153.727" fill-opacity="0" stroke="#1A1919" stroke-width="1.2" stroke-linecap="round" stroke-linejoin="round"/>
    <path d="M247.143,181.992 C247.143,181.992 245.809,183.859 245.543,184.926 C245.276,185.992 244.21,187.325 243.676,188.393 C243.143,189.46 241.543,191.594 242.876,192.126 C244.209,192.659 244.209,192.659 244.209,192.659 C244.209,192.659 244.744,194.526 245.543,194.793 C246.343,195.059 247.676,195.326 247.676,195.326 C248.476,196.926 249.276,196.393 250.61,196.393 C251.944,196.393 252.21,195.855 252.21,195.855 C252.478,196.39 253.278,196.923 254.876,196.126 C256.209,195.859 258.876,194.793 259.676,193.727 C260.476,192.659 261.01,184.926 261.01,184.926 L247.143,181.992" fill="#F4BB9D"/>
    <path d="M247.143,181.992 C247.143,181.992 245.809,183.859 245.543,184.926 C245.276,185.992 244.21,187.325 243.676,188.393 C243.143,189.46 241.543,191.594 242.876,192.126 C244.209,192.659 244.209,192.659 244.209,192.659 C244.209,192.659 244.744,194.526 245.543,194.793 C246.343,195.059 247.676,195.326 247.676,195.326 C248.476,196.926 249.276,196.393 250.61,196.393 C251.944,196.393 252.21,195.855 252.21,195.855 C252.478,196.39 253.278,196.923 254.876,196.126 C256.209,195.859 258.876,194.793 259.676,193.727 C260.476,192.659 261.01,184.926 261.01,184.926 L247.143,181.992 z M250.077,193.727 C250.077,193.727 248.476,195.326 247.676,195.326 M253.81,193.727 L252.078,195.988 M256.744,193.992 L255.678,195.988 M244.209,192.659 C245.01,191.859 246.343,191.059 246.61,190.259 C246.876,189.459 248.209,188.659 248.209,188.659 M246.077,192.126 L246.61,190.259" fill-opacity="0" stroke="#1A1919" stroke-width="1.2" stroke-linecap="round" stroke-linejoin="round"/>
    <path d="M225.202,50.511 C224.786,52.597 223.884,54.175 223.188,54.036 C222.492,53.898 222.267,52.093 222.684,50.007 C223.101,47.921 224.048,47.186 224.744,47.326 C225.439,47.465 225.62,48.425 225.202,50.511" fill="#1A1919"/>
    <path d="M219.61,119.859 C218.792,119.838 217.817,106.043 220.702,99.953 C221.182,99.632 223.908,99.311 223.908,99.311 L222.144,97.068 L224.209,94.792" fill-opacity="0" stroke="#1A1919" stroke-width="1.2" stroke-linecap="round" stroke-linejoin="round"/>
    <path d="M230.264,58.213 C230.192,59.61 228.108,60.64 225.608,60.513 C223.107,60.386 221.137,59.149 221.209,57.752 C221.28,56.355 223.365,55.325 225.866,55.453 C228.366,55.58 230.334,56.816 230.264,58.213" fill="#EB9174"/>
    <path d="M247.676,180.126 L247.143,181.992 C248.744,183.059 257.276,186.259 262.343,186.259 L263.41,183.059 L247.676,180.126" fill="#FFFFFE"/>
    <path d="M247.676,180.126 L247.143,181.992 C248.744,183.059 257.276,186.259 262.343,186.259 L263.41,183.059 L247.676,180.126 z" fill-opacity="0" stroke="#1A1919" stroke-width="1.2" stroke-linecap="round" stroke-linejoin="round"/>
    <path d="M255.944,120.126 C259.409,107.326 267.944,104.659 269.543,104.126 C271.676,104.126 276.744,107.325 276.209,117.459 C275.676,127.593 274.61,139.859 273.01,145.459 C273.276,147.059 273.01,151.859 273.01,151.859 C273.01,151.859 266.077,179.593 263.676,184.393 C262.61,185.192 249.81,182.26 246.61,180.126 C248.476,175.326 255.676,151.326 257.01,146.793 C256.476,144.659 255.676,126.792 255.676,125.726" fill="#636463"/>
    <path d="M255.944,120.126 C259.409,107.326 267.944,104.659 269.543,104.126 C271.676,104.126 276.744,107.325 276.209,117.459 C275.676,127.593 274.61,139.859 273.01,145.459 C273.276,147.059 273.01,151.859 273.01,151.859 C273.01,151.859 266.077,179.593 263.676,184.393 C262.61,185.192 249.81,182.26 246.61,180.126 C248.476,175.326 255.676,151.326 257.01,146.793 C256.476,144.659 255.676,126.792 255.676,125.726 M270.343,139.859 C270.876,142.792 272.476,144.393 272.744,145.993 M148.21,142.792 C146.343,144.393 138.61,164.126 138.61,164.126 L173.811,165.992 C173.811,165.992 168.477,146.526 166.611,144.926 C164.744,143.326 148.21,142.792 148.21,142.792 z" fill-opacity="0" stroke="#1A1919" stroke-width="1.2" stroke-linecap="round" stroke-linejoin="round"/>
    <path d="M119.144,266.793 C119.144,267.593 119.144,268.659 119.943,269.192 C120.744,269.727 126.344,270.526 129.277,269.992 C132.21,269.459 136.21,269.192 139.41,266.793 L140.477,264.926 L140.477,266.793 L145.277,265.459 C145.543,264.659 147.144,262.259 145.81,261.459 C144.477,260.659 119.144,266.793 119.144,266.793" fill="#343534"/>
    <path d="M119.144,266.793 C119.144,267.593 119.144,268.659 119.943,269.192 C120.744,269.727 126.344,270.526 129.277,269.992 C132.21,269.459 136.21,269.192 139.41,266.793 L140.477,264.926 L140.477,266.793 L145.277,265.459 C145.543,264.659 147.144,262.259 145.81,261.459 C144.477,260.659 119.144,266.793 119.144,266.793 z" fill-opacity="0" stroke="#1A1919" stroke-width="1.2" stroke-linecap="round" stroke-linejoin="round"/>
    <path d="M130.61,257.192 C130.61,257.192 125.277,261.992 123.943,262.793 C122.61,263.059 119.944,263.326 119.677,264.926 C119.41,266.526 118.61,266.792 121.543,267.859 C124.477,268.926 132.21,268.393 137.543,265.992 C139.144,265.192 140.477,263.859 140.477,263.859 L145.543,262.259 C145.543,262.259 147.144,258.792 146.077,255.859 L137.81,256.659 L135.144,259.326 L136.21,256.393 L130.61,257.192" fill="#343534"/>
    <path d="M130.61,257.192 C130.61,257.192 125.277,261.992 123.943,262.793 C122.61,263.059 119.944,263.326 119.677,264.926 C119.41,266.526 118.61,266.792 121.543,267.859 C124.477,268.926 132.21,268.393 137.543,265.992 C139.144,265.192 140.477,263.859 140.477,263.859 L145.543,262.259 C145.543,262.259 147.144,258.792 146.077,255.859 L137.81,256.659 L135.144,259.326 L136.21,256.393 L130.61,257.192 z" fill-opacity="0" stroke="#1A1919" stroke-width="1.2" stroke-linecap="round" stroke-linejoin="round"/>
    <path d="M157.344,259.793 C156.811,260.859 156.811,262.192 157.344,262.992 C157.877,263.793 162.144,265.125 162.144,265.125 L162.944,264.059 L164.01,266.726 C164.01,266.726 169.078,270.192 173.078,270.992 C177.078,271.793 178.944,271.26 179.745,270.992 C180.544,270.726 181.611,267.793 181.611,267.793 L163.478,260.593 L157.344,259.793" fill="#343534"/>
    <path d="M157.344,259.793 C156.811,260.859 156.811,262.192 157.344,262.992 C157.877,263.793 162.144,265.125 162.144,265.125 L162.944,264.059 L164.01,266.726 C164.01,266.726 169.078,270.192 173.078,270.992 C177.078,271.793 178.944,271.26 179.745,270.992 C180.544,270.726 181.611,267.793 181.611,267.793 L163.478,260.593 L157.344,259.793 z" fill-opacity="0" stroke="#1A1919" stroke-width="1.2" stroke-linecap="round" stroke-linejoin="round"/>
    <path d="M157.877,253.659 C157.078,254.459 156.544,258.192 157.344,259.793 C158.144,261.393 157.611,261.125 160.811,262.459 C161.611,262.726 163.21,263.259 163.21,263.259 C163.21,263.259 164.137,264.719 165.344,265.926 C166.678,267.258 174.144,271.259 180.544,269.125 C180.811,268.325 182.144,267.525 181.344,266.192 C180.544,264.859 179.21,263.792 178.144,263.525 C177.078,263.259 172.811,260.593 172.544,259.793 L172.01,256.325 L164.544,255.525 L163.21,257.659 L161.078,254.726 L157.877,253.659" fill="#343534"/>
    <path d="M157.877,253.659 C157.078,254.459 156.544,258.192 157.344,259.793 C158.144,261.393 157.611,261.125 160.811,262.459 C161.611,262.726 163.21,263.259 163.21,263.259 C163.21,263.259 164.137,264.719 165.344,265.926 C166.678,267.258 174.144,271.259 180.544,269.125 C180.811,268.325 182.144,267.525 181.344,266.192 C180.544,264.859 179.21,263.792 178.144,263.525 C177.078,263.259 172.811,260.593 172.544,259.793 L172.01,256.325 L164.544,255.525 L163.21,257.659 L161.078,254.726 L157.877,253.659 z" fill-opacity="0" stroke="#1A1919" stroke-width="1.2" stroke-linecap="round" stroke-linejoin="round"/>
    <path d="M131.943,169.459 C131.943,170.259 131.677,178.525 132.21,184.659 C132.744,190.793 133.543,210.525 133.543,213.459 C133.543,217.192 129.543,227.326 131.144,230.793 C132.744,234.259 133.01,235.859 133.01,236.926 C133.01,237.992 130.61,248.393 130.61,249.192 C130.61,249.992 130.877,251.326 130.877,251.326 C130.877,251.326 130.077,251.592 129.277,252.659 C128.477,253.727 129.01,256.393 129.01,257.727 C132.477,257.727 145.277,255.859 146.877,255.059 C148.477,254.259 148.477,252.394 148.477,251.326 C148.477,250.259 147.677,249.993 147.677,248.926 C147.677,247.859 147.41,248.125 148.744,245.459 C150.077,242.793 150.344,240.126 150.077,237.727 C149.81,235.326 148.744,228.126 149.01,224.126 C149.277,220.126 149.01,215.593 149.543,211.593 C150.077,207.593 155.944,182.526 157.811,179.326 C159.143,179.593 162.876,197.993 161.543,216.126 C161.01,217.727 161.01,221.191 161.01,223.059 C161.01,224.926 160.21,225.727 159.411,230.793 C158.611,235.859 158.611,241.992 157.811,244.659 C157.01,247.326 155.944,247.859 155.944,249.459 C155.944,251.059 153.543,253.46 154.877,254.526 C158.611,256.926 167.143,258.793 170.077,258.526 C173.01,256.926 174.61,256.393 174.343,253.992 C174.077,251.593 172.744,249.992 172.744,249.992 C174.877,245.192 175.944,247.592 175.944,243.059 C175.944,238.526 176.476,236.394 177.543,224.926 C178.611,213.459 181.01,187.859 180.21,178.793 C179.411,169.727 179.944,168.126 179.944,168.126 L132.21,166.793 L131.943,169.459" fill="#464D5A"/>
    <path d="M131.943,169.459 C131.943,170.259 131.677,178.525 132.21,184.659 C132.744,190.793 133.543,210.525 133.543,213.459 C133.543,217.192 129.543,227.326 131.144,230.793 C132.744,234.259 133.01,235.859 133.01,236.926 C133.01,237.992 130.61,248.393 130.61,249.192 C130.61,249.992 130.877,251.326 130.877,251.326 C130.877,251.326 130.077,251.592 129.277,252.659 C128.477,253.727 129.01,256.393 129.01,257.727 C132.477,257.727 145.277,255.859 146.877,255.059 C148.477,254.259 148.477,252.394 148.477,251.326 C148.477,250.259 147.677,249.993 147.677,248.926 C147.677,247.859 147.41,248.125 148.744,245.459 C150.077,242.793 150.344,240.126 150.077,237.727 C149.81,235.326 148.744,228.126 149.01,224.126 C149.277,220.126 149.01,215.593 149.543,211.593 C150.077,207.593 155.944,182.526 157.811,179.326 C159.143,179.593 162.876,197.993 161.543,216.126 C161.01,217.727 161.01,221.191 161.01,223.059 C161.01,224.926 160.21,225.727 159.411,230.793 C158.611,235.859 158.611,241.992 157.811,244.659 C157.01,247.326 155.944,247.859 155.944,249.459 C155.944,251.059 153.543,253.46 154.877,254.526 C158.611,256.926 167.143,258.793 170.077,258.526 C173.01,256.926 174.61,256.393 174.343,253.992 C174.077,251.593 172.744,249.992 172.744,249.992 C174.877,245.192 175.944,247.592 175.944,243.059 C175.944,238.526 176.476,236.394 177.543,224.926 C178.611,213.459 181.01,187.859 180.21,178.793 C179.411,169.727 179.944,168.126 179.944,168.126 L132.21,166.793 L131.943,169.459 z M132.744,251.326 C135.144,251.593 143.144,248.926 145.01,247.326 M140.744,185.459 C141.277,188.926 139.677,210.526 139.144,214.793 C138.61,219.059 137.811,223.325 138.077,227.859 C138.343,232.393 137.81,236.659 137.543,239.059 M137.543,244.126 C137.277,245.727 136.744,248.926 136.744,248.926 M134.877,252.926 C134.877,252.926 134.61,255.593 135.144,257.727 M162.343,249.192 C165.01,250.793 169.81,253.727 171.944,252.926 M171.677,184.126 C171.944,192.659 172.656,211.049 171.677,219.859 C170.877,227.059 169.811,240.926 169.811,243.593 C169.811,243.593 168.744,248.393 169.277,250.793 M167.944,253.727 C168.21,255.326 166.611,256.659 165.811,257.992" fill-opacity="0" stroke="#1A1919" stroke-width="1.2" stroke-linecap="round" stroke-linejoin="round"/>
    <path d="M139.998,162.601 C141.598,162.867 163.93,165.62 172.73,164.82 L172.21,168.659 C170.077,168.659 145.81,168.126 140.21,166.793 L139.998,162.601" fill="#464D5A"/>
    <path d="M139.998,162.601 C141.598,162.867 163.93,165.62 172.73,164.82 L172.21,168.659 C170.077,168.659 145.81,168.126 140.21,166.793 L139.998,162.601 z" fill-opacity="0" stroke="#1A1919" stroke-width="1.2" stroke-linecap="round" stroke-linejoin="round"/>
    <path d="M148.21,82.526 L139.677,87.592 L139.144,89.192 C139.144,89.192 132.421,92.825 131.41,92.392 C129.544,91.592 127.144,91.592 127.144,91.592 C124.477,92.926 121.81,97.459 121.277,100.659 C121.277,101.992 121.277,105.323 121.811,107.456 C122.344,109.589 121.81,119.859 125.277,126.526 C128.744,133.192 129.277,133.992 129.277,133.992 C129.277,135.059 130.096,142.831 129.81,143.859 C128.477,148.659 122.344,172.926 122.877,175.325 C123.943,177.726 135.943,183.059 150.61,180.926 C153.01,180.393 155.143,178.259 155.143,178.259 C155.944,176.393 158.61,155.059 159.143,149.992 C159.677,153.992 161.81,175.859 162.343,177.459 C163.143,178.793 165.987,180.02 167.411,180.926 C170.343,182.793 182.876,182.793 187.143,180.659 C187.944,171.859 187.677,157.992 184.477,142.259 C183.944,140.659 183.143,136.126 183.143,136.126 C186.877,136.659 192.21,136.659 194.611,134.792 C197.01,132.926 199.677,127.592 199.677,122.792 C199.677,118.812 197.949,112.358 196.744,105.726 C195.677,99.859 193.678,97.456 193.01,96.656 C192.307,95.811 190.611,96.659 189.543,97.192 C188.744,95.859 180.744,89.992 179.677,89.192 C179.677,87.859 176.744,82.792 175.143,81.992 C173.543,81.192 149.01,81.726 148.21,82.526" fill="#464D5A"/>
    <path d="M148.21,82.526 L139.677,87.592 L139.144,89.192 C139.144,89.192 132.421,92.825 131.41,92.392 C129.544,91.592 127.144,91.592 127.144,91.592 C124.477,92.926 121.81,97.459 121.277,100.659 C121.277,101.992 121.277,105.323 121.811,107.456 C122.344,109.589 121.81,119.859 125.277,126.526 C128.744,133.192 129.277,133.992 129.277,133.992 C129.277,135.059 130.096,142.831 129.81,143.859 C128.477,148.659 122.344,172.926 122.877,175.325 C123.943,177.726 135.943,183.059 150.61,180.926 C153.01,180.393 155.143,178.259 155.143,178.259 C155.944,176.393 158.61,155.059 159.143,149.992 C159.677,153.992 161.81,175.859 162.343,177.459 C163.143,178.793 165.987,180.02 167.411,180.926 C170.343,182.793 182.876,182.793 187.143,180.659 C187.944,171.859 187.677,157.992 184.477,142.259 C183.944,140.659 183.143,136.126 183.143,136.126 C186.877,136.659 192.21,136.659 194.611,134.792 C197.01,132.926 199.677,127.592 199.677,122.792 C199.677,118.812 197.949,112.358 196.744,105.726 C195.677,99.859 193.678,97.456 193.01,96.656 C192.307,95.811 190.611,96.659 189.543,97.192 C188.744,95.859 180.744,89.992 179.677,89.192 C179.677,87.859 176.744,82.792 175.143,81.992 C173.543,81.192 149.01,81.726 148.21,82.526 z" fill-opacity="0" stroke="#1A1919" stroke-width="1.2" stroke-linecap="round" stroke-linejoin="round"/>
    <path d="M149.544,79.326 L149.544,81.726 L150.077,88.126 L161.811,93.192 L173.01,84.392 C173.01,84.392 171.944,79.06 172.744,76.126 L149.544,79.326" fill="#F4BB9D"/>
    <path d="M149.544,79.326 L149.544,81.726 L150.077,88.126 L161.811,93.192 L173.01,84.392 C173.01,84.392 171.944,79.06 172.744,76.126 L149.544,79.326 z" fill-opacity="0" stroke="#1A1919" stroke-width="1.2" stroke-linecap="round" stroke-linejoin="round"/>
    <path d="M162.077,133.192 C161.277,133.192 155.411,132.926 155.411,132.926 L155.143,123.059 L162.343,122.259" fill="#FFFFFE"/>
    <path d="M162.077,133.192 C161.277,133.192 155.411,132.926 155.411,132.926 L155.143,123.059 L162.343,122.259" fill-opacity="0" stroke="#1A1919" stroke-width="1.2" stroke-linecap="round" stroke-linejoin="round"/>
    <path d="M149.544,81.726 C149.722,81.94 149.939,82.183 150.183,82.444 C151.761,84.134 154.486,86.597 155.411,87.059 C156.744,87.326 162.877,87.593 164.477,87.326 C166.877,86.259 171.677,82.792 172.477,81.992 C173.277,81.192 172.744,80.126 172.744,80.126 L173.811,80.126 L175.411,83.859 C174.343,86.526 162.611,112.926 160.21,118.792 L155.143,119.326 L153.277,115.059 C153.01,112.126 147.944,91.326 147.144,87.326 C147.144,85.992 147.677,83.325 148.477,81.992" fill="#FFFFFE"/>
    <path d="M149.544,81.726 C149.722,81.94 149.939,82.183 150.183,82.444 C151.761,84.134 154.486,86.597 155.411,87.059 C156.744,87.326 162.877,87.593 164.477,87.326 C166.877,86.259 171.677,82.792 172.477,81.992 C173.277,81.192 172.744,80.126 172.744,80.126 L173.811,80.126 L175.411,83.859 C174.343,86.526 162.611,112.926 160.21,118.792 L155.143,119.326 L153.277,115.059 C153.01,112.126 147.944,91.326 147.144,87.326 C147.144,85.992 147.677,83.325 148.477,81.992" fill-opacity="0" stroke="#1A1919" stroke-width="1.2" stroke-linecap="round" stroke-linejoin="round"/>
    <path d="M155.411,87.059 C155.411,87.059 154.343,88.659 154.343,89.459 C154.343,90.259 155.411,89.459 155.411,89.459 C155.411,90.792 155.411,93.192 156.21,93.992 C156.21,93.992 152.477,105.459 152.477,108.659 C152.477,108.659 153.811,115.859 154.877,118.526 L160.21,118.792 C160.21,117.459 162.877,111.859 162.877,111.859 C162.877,111.859 162.077,97.992 161.811,94.792 C162.077,93.726 163.17,89.464 164.477,89.726 C165.811,89.993 164.477,87.326 164.477,87.326 C163.411,87.326 155.411,87.059 155.411,87.059" fill="#CA853F"/>
    <path d="M155.411,87.059 C155.411,87.059 154.343,88.659 154.343,89.459 C154.343,90.259 155.411,89.459 155.411,89.459 C155.411,90.792 155.411,93.192 156.21,93.992 C156.21,93.992 152.477,105.459 152.477,108.659 C152.477,108.659 153.811,115.859 154.877,118.526 L160.21,118.792 C160.21,117.459 162.877,111.859 162.877,111.859 C162.877,111.859 162.077,97.992 161.811,94.792 C162.077,93.726 163.17,89.464 164.477,89.726 C165.811,89.993 164.477,87.326 164.477,87.326 C163.411,87.326 155.411,87.059 155.411,87.059 z" fill-opacity="0" stroke="#1A1919" stroke-width="1.2" stroke-linecap="round" stroke-linejoin="round"/>
    <path d="M172.477,112.659 C173.277,112.392 175.143,112.659 177.01,113.192 C178.877,113.726 183.944,116.392 183.944,116.392 C185.01,117.459 184.744,119.593 184.744,119.593 L177.01,120.659 L175.411,120.392" fill="#F4BB9D"/>
    <path d="M172.477,112.659 C173.277,112.392 175.143,112.659 177.01,113.192 C178.877,113.726 183.944,116.392 183.944,116.392 C185.01,117.459 184.744,119.593 184.744,119.593 L177.01,120.659 L175.411,120.392 M180.21,89.992 L180.477,92.926 L175.677,93.192 L181.01,95.592 C180.476,97.192 169.543,111.859 166.343,115.859" fill-opacity="0" stroke="#1A1919" stroke-width="1.2" stroke-linecap="round" stroke-linejoin="round"/>
    <path d="M164.744,112.392 C165.811,112.126 171.944,110.526 171.944,110.526 C174.077,111.592 177.277,117.459 177.01,120.659 L174.343,121.192 L171.411,122.792 L167.677,118.526 L164.744,112.392" fill="#FFFFFE"/>
    <path d="M164.744,112.392 C165.811,112.126 171.944,110.526 171.944,110.526 C174.077,111.592 177.277,117.459 177.01,120.659 L174.343,121.192 L171.411,122.792 L167.677,118.526 L164.744,112.392 z" fill-opacity="0" stroke="#1A1919" stroke-width="1.2" stroke-linecap="round" stroke-linejoin="round"/>
    <path d="M199.677,123.019 C199.677,127.819 197.811,133.152 195.411,135.019 C193.01,136.886 186.877,136.886 183.143,136.353 C180.21,136.619 162.343,133.993 161.277,133.993 C161.811,133.192 163.411,126.792 161.277,122.259 C161.811,122.259 182.343,120.086 185.01,119.552 C184.21,118.219 184.744,116.352 185.01,115.019 C185.277,113.686 187.944,103.286 188.21,101.952 L189.543,97.192" fill="#464D5A"/>
    <path d="M199.677,123.019 C199.677,127.819 197.811,133.152 195.411,135.019 C193.01,136.886 186.877,136.886 183.143,136.353 C180.21,136.619 162.343,133.993 161.277,133.993 C161.811,133.192 163.411,126.792 161.277,122.259 C161.811,122.259 182.343,120.086 185.01,119.552 C184.21,118.219 184.744,116.352 185.01,115.019 C185.277,113.686 187.944,103.286 188.21,101.952 L189.543,97.192 M185.01,119.326 C185.01,119.326 189.01,118.259 189.811,118.526" fill-opacity="0" stroke="#1A1919" stroke-width="1.2" stroke-linecap="round" stroke-linejoin="round"/>
    <path d="M146.877,116.392 C145.81,114.526 142.61,109.726 141.01,108.392 C139.41,107.059 136.477,104.925 135.41,105.192 C134.343,105.459 134.077,106.525 135.41,107.592 C134.61,107.592 133.277,106.792 133.01,107.859 C132.744,108.926 134.077,109.726 134.077,109.726 C133.277,109.992 132.477,111.326 132.477,111.326 C132.477,111.326 133.543,112.392 134.61,112.659 L136.477,113.726 C134.877,113.726 134.077,114.259 134.077,114.259 C134.077,114.259 135.943,115.592 136.744,115.592 C137.543,115.592 140.21,116.659 140.21,116.659 C140.21,116.659 145.011,117.726 146.877,116.392" fill="#F4BB9D"/>
    <path d="M146.877,116.392 C145.81,114.526 142.61,109.726 141.01,108.392 C139.41,107.059 136.477,104.925 135.41,105.192 C134.343,105.459 134.077,106.525 135.41,107.592 C134.61,107.592 133.277,106.792 133.01,107.859 C132.744,108.926 134.077,109.726 134.077,109.726 C133.277,109.992 132.477,111.326 132.477,111.326 C132.477,111.326 133.543,112.392 134.61,112.659 L136.477,113.726 C134.877,113.726 134.077,114.259 134.077,114.259 C134.077,114.259 135.943,115.592 136.744,115.592 C137.543,115.592 140.21,116.659 140.21,116.659 C140.21,116.659 145.011,117.726 146.877,116.392 z M135.41,107.592 C136.477,108.126 138.877,109.192 140.21,110.259 M134.077,109.726 C135.943,110.259 137.01,111.326 140.744,112.392 M136.477,113.726 C137.277,113.992 140.21,114.526 140.21,114.526 M128.744,150.792 C130.61,150.792 140.21,153.191 145.01,153.727 M172.21,153.727 C174.611,153.992 182.61,153.992 186.343,153.459 M139.144,88.926 C139.144,88.926 137.543,92.126 138.61,92.126 C139.677,92.126 143.41,92.392 142.61,92.659 C141.81,92.926 138.877,95.059 138.877,95.059 C140.477,98.792 147.41,112.925 150.61,115.592 M132.61,92.659 C134.477,93.459 135.144,96.393 136.744,99.326 C138.343,102.259 138.877,105.459 138.877,106.526 M156.21,152.659 C156.21,153.837 155.255,154.792 154.077,154.792 C152.899,154.792 151.943,153.837 151.943,152.659 C151.943,151.48 152.899,150.526 154.077,150.526 C155.255,150.526 156.21,151.48 156.21,152.659 z M157.277,134.792 C157.543,136.926 159.411,146.259 159.411,150.259" fill-opacity="0" stroke="#1A1919" stroke-width="1.2" stroke-linecap="round" stroke-linejoin="round"/>
    <path d="M170.964,22.248 C172.106,21.962 178.384,22.818 180.667,23.389 C188.022,25.229 194.648,37.085 195.218,42.506 C195.789,47.928 192.65,54.49 190.368,56.773 C190.368,56.773 185.517,69.328 183.804,71.61 C181.807,76.175 177.242,80.17 174.674,80.17 L170.964,76.746 L144.714,55.346 C144.714,55.346 144.714,55.346 139.864,48.784 C135.013,42.221 135.869,31.664 136.725,29.952 C139.179,25.042 151.277,17.968 154.986,16.826 C160.942,14.993 168.682,19.965 169.823,21.392 L170.964,22.248 z" fill="url(#Gradient_1)"/>
    <path d="M170.964,22.248 C172.106,21.962 178.384,22.818 180.667,23.389 C188.022,25.229 194.648,37.085 195.218,42.506 C195.789,47.928 192.65,54.49 190.368,56.773 C190.368,56.773 185.517,69.328 183.804,71.61 C181.807,76.175 177.242,80.17 174.674,80.17 L170.964,76.746 L144.714,55.346 C144.714,55.346 144.714,55.346 139.864,48.784 C135.013,42.221 135.869,31.664 136.725,29.952 C139.179,25.042 151.277,17.968 154.986,16.826 C160.942,14.993 168.682,19.965 169.823,21.392 L170.964,22.248 z" fill-opacity="0" stroke="#1A1919" stroke-width="1.2" stroke-linecap="round" stroke-linejoin="round"/>
    <path d="M141.291,43.077 C138.722,49.069 135.298,62.765 135.869,66.474 C136.439,70.184 139.82,75.304 145.57,80.17 C149.28,83.309 152.359,84.916 152.989,85.021 C155.892,85.505 160.284,85.88 163.26,84.735 C166.97,83.309 172.106,81.026 175.53,77.602 C176.957,76.175 179.24,73.607 179.24,73.607 C182.377,73.607 185.232,71.325 187.799,68.186 C190.368,65.048 192.651,58.771 190.368,56.773 C189.512,56.487 188.656,55.632 187.799,56.487 C186.944,57.344 186.374,58.77 186.374,58.77 C186.374,58.77 184.661,63.621 181.522,65.048 C181.522,65.048 182.664,59.341 182.664,56.773 C181.522,55.632 175.815,49.925 174.104,45.93 C172.392,41.936 170.964,35.658 170.964,33.946 C169.823,35.658 169.252,43.362 169.539,46.216 C168.682,45.36 165.543,41.079 166.114,34.802 C166.685,28.525 167.256,27.384 167.256,27.384 C164.402,27.669 155.272,29.666 152.704,33.09 C150.136,36.514 148.994,42.221 148.994,43.362 C148.994,43.362 146.141,41.935 145.855,40.794 C145.855,40.794 144.429,42.506 143.858,45.36 C143.858,45.36 141.291,43.933 141.291,43.077" fill="#F4BB9D"/>
    <path d="M141.291,43.077 C138.722,49.069 135.298,62.765 135.869,66.474 C136.439,70.184 139.82,75.304 145.57,80.17 C149.28,83.309 152.359,84.916 152.989,85.021 C155.892,85.505 160.284,85.88 163.26,84.735 C166.97,83.309 172.106,81.026 175.53,77.602 C176.957,76.175 179.24,73.607 179.24,73.607 C182.377,73.607 185.232,71.325 187.799,68.186 C190.368,65.048 192.651,58.771 190.368,56.773 C189.512,56.487 188.656,55.632 187.799,56.487 C186.944,57.344 186.374,58.77 186.374,58.77 C186.374,58.77 184.661,63.621 181.522,65.048 C181.522,65.048 182.664,59.341 182.664,56.773 C181.522,55.632 175.815,49.925 174.104,45.93 C172.392,41.936 170.964,35.658 170.964,33.946 C169.823,35.658 169.252,43.362 169.539,46.216 C168.682,45.36 165.543,41.079 166.114,34.802 C166.685,28.525 167.256,27.384 167.256,27.384 C164.402,27.669 155.272,29.666 152.704,33.09 C150.136,36.514 148.994,42.221 148.994,43.362 C148.994,43.362 146.141,41.935 145.855,40.794 C145.855,40.794 144.429,42.506 143.858,45.36 C143.858,45.36 141.291,43.933 141.291,43.077 z M152.418,51.922 C152.132,53.634 150.707,57.914 150.707,57.914 C149.85,58.77 146.997,60.196 146.997,61.338 C146.997,62.479 148.423,63.906 150.421,65.618 M150.707,71.325 C152.418,71.325 160.979,72.466 162.12,72.751 M181.237,69.042 C181.237,69.042 179.24,71.896 179.811,72.751 M184.09,66.474 C184.947,65.618 186.087,65.048 186.087,65.048 L184.947,63.621 C184.947,63.621 185.801,61.909 187.229,60.768 C188.656,59.626 189.512,59.055 188.37,63.906 M152.132,22.533 C149.85,23.96 137.867,29.951 142.432,43.362 M174.674,26.813 C174.104,27.669 172.392,38.227 175.815,48.213 M182.949,42.792 C182.949,46.216 181.523,51.923 182.664,56.773" fill-opacity="0" stroke="#1A1919" stroke-width="1.2" stroke-linecap="round" stroke-linejoin="round"/>
    <path d="M147.685,53.886 C147.268,55.972 146.367,57.55 145.671,57.411 C144.975,57.273 144.75,55.468 145.167,53.382 C145.584,51.296 146.486,49.718 147.182,49.857 C147.877,49.996 148.103,51.8 147.685,53.886" fill="#1A1919"/>
    <path d="M166.803,55.027 C166.385,57.113 165.484,58.692 164.789,58.553 C164.092,58.414 163.867,56.61 164.285,54.523 C164.702,52.438 165.604,50.859 166.299,50.999 C166.995,51.138 167.22,52.941 166.803,55.027" fill="#1A1919"/>
    <path d="M128.744,132.659 C129.81,133.992 133.277,136.125 135.41,136.392 C137.543,136.659 145.81,136.126 151.144,133.726 C156.477,131.326 169.811,124.126 171.411,122.792 C171.411,121.192 166.877,112.925 165.01,111.592 C163.944,111.326 146.876,116.392 144.744,116.659 C142.61,116.926 139.41,116.126 139.41,116.126" fill="#464D5A"/>
    <path d="M128.744,132.659 C129.81,133.992 133.277,136.125 135.41,136.392 C137.543,136.659 145.81,136.126 151.144,133.726 C156.477,131.326 169.811,124.126 171.411,122.792 C171.411,121.192 166.877,112.925 165.01,111.592 C163.944,111.326 146.876,116.392 144.744,116.659 C142.61,116.926 139.41,116.126 139.41,116.126 M155.411,87.059 C155.411,87.059 149.544,93.192 149.277,93.992 M164.477,87.326 C164.477,87.326 169.01,93.992 169.543,95.592" fill-opacity="0" stroke="#1A1919" stroke-width="1.2" stroke-linecap="round" stroke-linejoin="round"/>
    <path d="M156.21,93.992 C157.543,94.792 157.811,95.326 159.411,95.059" fill="#CA853F"/>
    <path d="M156.21,93.992 C157.543,94.792 157.811,95.326 159.411,95.059" fill-opacity="0" stroke="#1A1919" stroke-width="1.2" stroke-linecap="round" stroke-linejoin="round"/>
    <path d="M171.864,62.613 C171.792,64.011 169.708,65.04 167.208,64.913 C164.708,64.786 162.738,63.55 162.809,62.152 C162.88,60.755 164.965,59.726 167.465,59.853 C169.965,59.98 171.936,61.216 171.864,62.613" fill="#EB9174"/>
    <path d="M147.138,59.689 C147.066,61.087 144.982,62.116 142.482,61.989 C139.981,61.862 138.012,60.626 138.083,59.228 C138.154,57.831 140.239,56.802 142.74,56.929 C145.24,57.056 147.209,58.293 147.138,59.689" fill="#EB9174"/>
    <path d="M169.811,43.326 C171.411,41.192 174.61,43.326 173.543,49.726 M147.943,42.259 C146.343,40.126 144.21,42.792 142.077,47.059" fill-opacity="0" stroke="#1A1919" stroke-width="1.2" stroke-linecap="round" stroke-linejoin="round"/>
  </g>
</svg>
